<svg width="560" height="519" viewBox="0 0 560 519" fill="none" xmlns="http://www.w3.org/2000/svg">
<path d="M144.082 309.03H63.2517V272.54L144.082 176.447H182.764V274.613H202.809V309.03H182.764V338.892H144.082V309.03ZM144.082 274.613V224.347L101.362 274.613H144.082Z" fill="#407BFF"/>
<path d="M216.637 258.379C216.637 228.013 222.101 206.759 233.029 194.618C243.957 182.477 260.61 176.411 282.989 176.419C293.731 176.419 302.556 177.748 309.463 180.405C315.738 182.666 321.484 186.187 326.347 190.752C330.445 194.666 333.917 199.186 336.641 204.156C339.337 209.344 341.367 214.851 342.685 220.548C345.689 232.716 347.188 245.208 347.149 257.742C347.149 286.718 342.247 307.923 332.444 321.357C322.64 334.791 305.757 341.512 281.793 341.521C268.35 341.521 257.489 339.378 249.209 335.092C240.862 330.736 233.831 324.228 228.845 316.243C224.993 310.362 221.995 302.317 219.852 292.106C217.627 281.004 216.55 269.702 216.637 258.379ZM260.659 258.485C260.659 278.854 262.452 292.744 266.039 300.156C269.626 307.568 274.837 311.292 281.674 311.328C283.843 311.352 285.996 310.945 288.007 310.131C290.018 309.317 291.848 308.112 293.39 306.585C296.702 303.424 299.137 298.429 300.696 291.601C302.254 284.774 303.034 274.147 303.034 259.721C303.034 238.52 301.236 224.267 297.641 216.961C294.045 209.655 288.652 206.006 281.461 206.015C274.129 206.015 268.815 209.739 265.521 217.187C262.227 224.634 260.606 238.401 260.659 258.485Z" fill="#407BFF"/>
<path d="M441.714 309.029H360.884V272.539L441.714 176.446H480.396V274.612H500.508V309.029H480.396V338.891H441.714V309.029ZM441.714 274.612V224.346L399.008 274.612H441.714Z" fill="#407BFF"/>
<g opacity="0.3">
<path opacity="0.3" d="M214.91 120.376C214.91 120.868 214.764 121.348 214.491 121.757C214.217 122.166 213.829 122.484 213.374 122.672C212.919 122.859 212.419 122.908 211.937 122.811C211.455 122.714 211.012 122.476 210.665 122.127C210.318 121.779 210.083 121.335 209.988 120.852C209.894 120.369 209.945 119.869 210.135 119.416C210.325 118.962 210.646 118.575 211.056 118.304C211.466 118.032 211.948 117.889 212.44 117.892C212.765 117.892 213.088 117.956 213.388 118.081C213.689 118.206 213.962 118.389 214.191 118.62C214.421 118.851 214.603 119.125 214.726 119.426C214.85 119.727 214.912 120.05 214.91 120.376Z" fill="#407BFF"/>
<path opacity="0.3" d="M44.8406 215.792C45.809 215.792 46.594 215.007 46.594 214.038C46.594 213.07 45.809 212.285 44.8406 212.285C43.8722 212.285 43.0872 213.07 43.0872 214.038C43.0872 215.007 43.8722 215.792 44.8406 215.792Z" fill="#407BFF"/>
<path opacity="0.3" d="M334.529 471.859C335.916 471.859 337.04 470.735 337.04 469.349C337.04 467.962 335.916 466.838 334.529 466.838C333.143 466.838 332.018 467.962 332.018 469.349C332.018 470.735 333.143 471.859 334.529 471.859Z" fill="#407BFF"/>
<path opacity="0.3" d="M394.903 369.709C395.871 369.709 396.656 368.924 396.656 367.955C396.656 366.987 395.871 366.202 394.903 366.202C393.935 366.202 393.15 366.987 393.15 367.955C393.15 368.924 393.935 369.709 394.903 369.709Z" fill="#407BFF"/>
<path opacity="0.3" d="M511.36 53.9578C511.36 54.3046 511.257 54.6436 511.065 54.9319C510.872 55.2203 510.598 55.445 510.278 55.5777C509.957 55.7105 509.605 55.7452 509.265 55.6775C508.925 55.6099 508.612 55.4429 508.367 55.1976C508.122 54.9524 507.955 54.64 507.887 54.2999C507.819 53.9597 507.854 53.6072 507.987 53.2868C508.12 52.9664 508.344 52.6925 508.633 52.4998C508.921 52.3072 509.26 52.2043 509.607 52.2043C510.072 52.2043 510.518 52.3891 510.847 52.7179C511.176 53.0467 511.36 53.4927 511.36 53.9578Z" fill="#407BFF"/>
<path opacity="0.3" d="M177.384 18.5967C177.384 18.9435 177.281 19.2825 177.089 19.5709C176.896 19.8592 176.622 20.0839 176.302 20.2167C175.981 20.3494 175.629 20.3841 175.289 20.3164C174.949 20.2488 174.636 20.0818 174.391 19.8366C174.146 19.5913 173.979 19.2789 173.911 18.9388C173.843 18.5986 173.878 18.2461 174.011 17.9257C174.144 17.6053 174.368 17.3314 174.657 17.1388C174.945 16.9461 175.284 16.8433 175.631 16.8433C176.095 16.8467 176.539 17.0326 176.867 17.3607C177.195 17.6888 177.381 18.1327 177.384 18.5967Z" fill="#407BFF"/>
<path opacity="0.3" d="M316.796 110.599C317.764 110.599 318.549 109.814 318.549 108.845C318.549 107.877 317.764 107.092 316.796 107.092C315.827 107.092 315.042 107.877 315.042 108.845C315.042 109.814 315.827 110.599 316.796 110.599Z" fill="#407BFF"/>
</g>
<path d="M135.514 110.612C151.588 110.612 164.619 97.5818 164.619 81.5079C164.619 65.434 151.588 52.4036 135.514 52.4036C119.44 52.4036 106.41 65.434 106.41 81.5079C106.41 97.5818 119.44 110.612 135.514 110.612Z" fill="#407BFF"/>
<path opacity="0.7" d="M135.514 110.612C151.588 110.612 164.619 97.5818 164.619 81.5079C164.619 65.434 151.588 52.4036 135.514 52.4036C119.44 52.4036 106.41 65.434 106.41 81.5079C106.41 97.5818 119.44 110.612 135.514 110.612Z" fill="white"/>
<path opacity="0.2" d="M125.485 59.5504C121.522 59.5383 117.598 60.3385 113.955 61.9016C109.479 66.8217 106.821 73.1263 106.426 79.7664C106.031 86.4065 107.921 92.9818 111.782 98.3984C115.643 103.815 121.242 107.746 127.648 109.538C134.054 111.33 140.88 110.875 146.991 108.248C150.78 104.073 153.275 98.8868 154.174 93.3204C155.072 87.7541 154.335 82.0467 152.052 76.8913C149.769 71.7358 146.038 67.3541 141.313 64.2782C136.587 61.2023 131.07 59.5645 125.432 59.5637L125.485 59.5504Z" fill="#407BFF"/>
<path opacity="0.2" d="M122.589 67.2414C122.589 67.7669 122.434 68.2805 122.142 68.7174C121.85 69.1543 121.435 69.4948 120.949 69.6959C120.464 69.897 119.93 69.9496 119.414 69.8471C118.899 69.7446 118.426 69.4916 118.054 69.12C117.683 68.7485 117.43 68.2751 117.327 67.7597C117.225 67.2444 117.277 66.7102 117.478 66.2247C117.679 65.7393 118.02 65.3244 118.457 65.0325C118.894 64.7405 119.407 64.5847 119.933 64.5847C120.637 64.5847 121.313 64.8646 121.811 65.3628C122.31 65.8611 122.589 66.5368 122.589 67.2414Z" fill="#407BFF"/>
<path opacity="0.2" d="M153.886 64.5845C153.886 65.1099 153.73 65.6235 153.438 66.0604C153.146 66.4973 152.731 66.8379 152.246 67.0389C151.76 67.24 151.226 67.2926 150.711 67.1901C150.195 67.0876 149.722 66.8346 149.35 66.463C148.979 66.0915 148.726 65.6181 148.623 65.1027C148.521 64.5874 148.573 64.0532 148.774 63.5678C148.975 63.0823 149.316 62.6674 149.753 62.3755C150.19 62.0835 150.703 61.9277 151.229 61.9277C151.933 61.9277 152.609 62.2076 153.107 62.7059C153.606 63.2041 153.886 63.8798 153.886 64.5845Z" fill="#407BFF"/>
<path opacity="0.2" d="M148.572 83.5533C148.572 84.415 148.317 85.2574 147.838 85.9739C147.359 86.6904 146.679 87.2489 145.882 87.5787C145.086 87.9084 144.21 87.9947 143.365 87.8266C142.52 87.6585 141.744 87.2435 141.134 86.6342C140.525 86.0248 140.11 85.2485 139.942 84.4033C139.774 83.5581 139.86 82.6821 140.19 81.8859C140.52 81.0898 141.078 80.4093 141.794 79.9306C142.511 79.4518 143.353 79.1963 144.215 79.1963C145.371 79.1963 146.479 79.6553 147.296 80.4724C148.113 81.2895 148.572 82.3978 148.572 83.5533Z" fill="#407BFF"/>
<path opacity="0.2" d="M134.731 95.9737C134.731 97.1245 134.389 98.2493 133.75 99.2061C133.111 100.163 132.202 100.909 131.139 101.349C130.076 101.789 128.906 101.905 127.777 101.68C126.649 101.456 125.612 100.902 124.798 100.088C123.985 99.2741 123.43 98.2374 123.206 97.1088C122.981 95.9802 123.097 94.8103 123.537 93.7472C123.977 92.6841 124.723 91.7754 125.68 91.1361C126.637 90.4967 127.762 90.1555 128.912 90.1555C130.455 90.1555 131.935 90.7685 133.027 91.8596C134.118 92.9508 134.731 94.4306 134.731 95.9737Z" fill="#407BFF"/>
<path d="M480.449 432.575C483.69 418.844 475.186 405.086 461.455 401.846C447.725 398.605 433.967 407.109 430.726 420.839C427.486 434.57 435.989 448.328 449.72 451.568C463.45 454.809 477.208 446.305 480.449 432.575Z" fill="#407BFF"/>
<path opacity="0.3" d="M480.449 432.575C483.69 418.844 475.186 405.086 461.455 401.846C447.725 398.605 433.967 407.109 430.726 420.839C427.486 434.57 435.989 448.328 449.72 451.568C463.45 454.809 477.208 446.305 480.449 432.575Z" fill="white"/>
<path opacity="0.4" d="M471.722 406.929C466.059 405.22 459.979 405.53 454.52 407.806C449.06 410.083 444.56 414.184 441.789 419.41C439.018 424.635 438.147 430.661 439.326 436.457C440.504 442.254 443.658 447.461 448.25 451.19C450.631 451.913 453.107 452.28 455.596 452.279C460.869 452.278 466.013 450.645 470.321 447.604C474.63 444.562 477.891 440.262 479.658 435.293C481.425 430.325 481.611 424.931 480.19 419.852C478.769 414.774 475.811 410.26 471.722 406.929Z" fill="#407BFF"/>
<path d="M431.207 434.373C403.936 447.205 424.273 457.102 462.702 443.287C498.289 430.495 511.852 414.368 479.971 419.376C481.685 426.084 437.118 443.446 431.207 434.373Z" fill="#407BFF"/>
<path opacity="0.2" d="M471.417 176.446C435.697 200.582 389.457 232.463 376.691 309.029H373.968C386.388 233.313 430.941 200.675 466.674 176.446H471.417Z" fill="black"/>
<path d="M286.642 416.135C264.06 416.135 241.73 405.946 230.851 389.315C224.143 379.034 216.345 357.501 239.565 328.769L241.624 330.442C225.205 350.766 222.177 371.157 233.082 387.867C246.366 408.191 277.702 418.42 304.455 411.14C331.859 403.688 348.49 379.857 350.098 345.758C355.584 229.115 417.552 193.183 462.796 166.948C490.917 150.649 511.227 138.88 506.764 114.026C506.14 110.586 504.772 108.208 502.553 106.747C496.775 102.934 485.484 105.578 472.413 108.62C446.762 114.597 411.64 122.78 390.719 87.1933L393.017 85.865C412.942 119.778 445.58 112.166 471.815 106.056C485.484 102.881 497.28 100.132 504.015 104.555C506.87 106.428 508.624 109.39 509.328 113.588C514.123 140.261 492.059 153.067 464.097 169.273C419.371 195.202 358.134 230.709 352.714 345.944C351.041 381.279 333.692 405.999 305.106 413.77C299.083 415.374 292.874 416.169 286.642 416.135Z" fill="#407BFF"/>
<path opacity="0.2" d="M286.642 416.135C264.06 416.135 241.73 405.946 230.851 389.315C224.143 379.034 216.345 357.501 239.565 328.769L241.624 330.442C225.205 350.766 222.177 371.157 233.082 387.867C246.366 408.191 277.702 418.42 304.455 411.14C331.859 403.688 348.49 379.857 350.098 345.758C355.584 229.115 417.552 193.183 462.796 166.948C490.917 150.649 511.227 138.88 506.764 114.026C506.14 110.586 504.772 108.208 502.553 106.747C496.775 102.934 485.484 105.578 472.413 108.62C446.762 114.597 411.64 122.78 390.719 87.1933L393.017 85.865C412.942 119.778 445.58 112.166 471.815 106.056C485.484 102.881 497.28 100.132 504.015 104.555C506.87 106.428 508.624 109.39 509.328 113.588C514.123 140.261 492.059 153.067 464.097 169.273C419.371 195.202 358.134 230.709 352.714 345.944C351.041 381.279 333.692 405.999 305.106 413.77C299.083 415.374 292.874 416.169 286.642 416.135Z" fill="white"/>
<path d="M363.368 55.7908C369.489 55.8261 375.569 56.7798 381.407 58.6202C381.407 58.6202 396.019 83.5535 397.746 89.2654C397.135 94.8977 387.637 104.13 387.637 104.13L363.368 55.7908Z" fill="#407BFF"/>
<path opacity="0.3" d="M363.368 55.7908C369.489 55.8261 375.569 56.7798 381.407 58.6202C381.407 58.6202 396.019 83.5535 397.746 89.2654C397.135 94.8977 387.637 104.13 387.637 104.13L363.368 55.7908Z" fill="white"/>
<path d="M406.646 176.844C401.019 169.964 395.887 162.693 391.29 155.086C390.174 153.164 389.116 151.207 388.115 149.214C387.544 148.085 386.999 146.956 386.468 145.814C385.771 144.702 385.23 143.5 384.861 142.24C383.267 125.41 389.032 113.016 383.532 99.5071L361.641 108.062C361.641 108.062 363.501 132.132 367.751 146.584C370.408 155.524 376.359 163.255 382.111 170.415C383.904 172.647 385.631 174.945 387.424 177.189C389.218 179.434 391.024 181.254 392.738 183.366C395.328 186.568 396.178 189.636 394.226 193.409L393.894 194.007C393.336 194.99 395.939 196.105 397.586 194.007C400.243 190.579 399.871 190.792 402.183 187.869C403.591 186.103 405.198 184.177 406.593 182.556C407.265 181.759 407.639 180.753 407.649 179.71C407.658 178.667 407.304 177.653 406.646 176.844Z" fill="#407BFF"/>
<path opacity="0.7" d="M406.646 176.844C401.019 169.964 395.887 162.693 391.29 155.086C390.174 153.164 389.116 151.207 388.115 149.214C387.544 148.085 386.999 146.956 386.468 145.814C385.771 144.702 385.23 143.5 384.861 142.24C383.267 125.41 389.032 113.016 383.532 99.5071L361.641 108.062C361.641 108.062 363.501 132.132 367.751 146.584C370.408 155.524 376.359 163.255 382.111 170.415C383.904 172.647 385.631 174.945 387.424 177.189C389.218 179.434 391.024 181.254 392.738 183.366C395.328 186.568 396.178 189.636 394.226 193.409L393.894 194.007C393.336 194.99 395.939 196.105 397.586 194.007C400.243 190.579 399.871 190.792 402.183 187.869C403.591 186.103 405.198 184.177 406.593 182.556C407.265 181.759 407.639 180.753 407.649 179.71C407.658 178.667 407.304 177.653 406.646 176.844Z" fill="white"/>
<path opacity="0.3" d="M401.293 169.924C397.819 173.647 393.963 176.995 389.789 179.913C390.36 180.55 390.918 181.241 391.489 181.852C395.668 179.029 399.464 175.676 402.78 171.876L401.293 169.924Z" fill="#407BFF"/>
<path opacity="0.3" d="M406.646 176.844L406.486 176.658C405.464 177.831 404.87 179.315 404.799 180.869C404.714 181.935 404.887 183.006 405.304 183.991L406.566 182.49C407.226 181.701 407.594 180.709 407.608 179.681C407.623 178.653 407.283 177.651 406.646 176.844Z" fill="#407BFF"/>
<path d="M358.161 71.7314C355.787 75.2849 352.941 78.4981 349.699 81.2823C347.901 82.8316 345.931 84.1688 343.828 85.2673C342.722 85.8336 341.577 86.3176 340.401 86.7152L339.497 87.0075L339.205 87.0872L338.581 87.2599C338.196 87.3511 337.805 87.4133 337.412 87.4458C336.291 87.5316 335.164 87.4283 334.078 87.1403C332.707 86.7514 331.394 86.1843 330.172 85.4533C329.189 84.8784 328.235 84.2532 327.316 83.5803C325.655 82.345 324.067 81.0144 322.561 79.5952C319.655 76.8421 316.989 73.847 314.591 70.6421C314.129 70.0178 313.899 69.2518 313.942 68.4764C313.985 67.701 314.297 66.9648 314.824 66.3948C315.351 65.8248 316.061 65.4569 316.831 65.3544C317.601 65.2519 318.382 65.4213 319.041 65.8334H319.147C322.282 67.826 325.443 69.9248 328.525 71.7978C330.092 72.7143 331.607 73.6442 333.108 74.3615C333.793 74.7203 334.498 75.0396 335.22 75.3179C335.669 75.5164 336.151 75.6334 336.641 75.6633C336.721 75.6633 336.641 75.5703 336.15 75.5836C335.995 75.5743 335.84 75.5743 335.685 75.5836L335.393 75.65L335.831 75.4242C336.421 75.1066 336.993 74.7563 337.545 74.3748C338.733 73.5367 339.844 72.5943 340.865 71.5587C343.186 69.1267 345.36 66.5584 347.374 63.8675C348.478 62.6325 350.004 61.8545 351.652 61.6862C353.3 61.518 354.951 61.9715 356.282 62.9579C357.612 63.9443 358.526 65.3923 358.845 67.0179C359.163 68.6435 358.862 70.3294 358.001 71.7446L358.161 71.7314Z" fill="#407BFF"/>
<path opacity="0.7" d="M358.161 71.7314C355.787 75.2849 352.941 78.4981 349.699 81.2823C347.901 82.8316 345.931 84.1688 343.828 85.2673C342.722 85.8336 341.577 86.3176 340.401 86.7152L339.497 87.0075L339.205 87.0872L338.581 87.2599C338.196 87.3511 337.805 87.4133 337.412 87.4458C336.291 87.5316 335.164 87.4283 334.078 87.1403C332.707 86.7514 331.394 86.1843 330.172 85.4533C329.189 84.8784 328.235 84.2532 327.316 83.5803C325.655 82.345 324.067 81.0144 322.561 79.5952C319.655 76.8421 316.989 73.847 314.591 70.6421C314.129 70.0178 313.899 69.2518 313.942 68.4764C313.985 67.701 314.297 66.9648 314.824 66.3948C315.351 65.8248 316.061 65.4569 316.831 65.3544C317.601 65.2519 318.382 65.4213 319.041 65.8334H319.147C322.282 67.826 325.443 69.9248 328.525 71.7978C330.092 72.7143 331.607 73.6442 333.108 74.3615C333.793 74.7203 334.498 75.0396 335.22 75.3179C335.669 75.5164 336.151 75.6334 336.641 75.6633C336.721 75.6633 336.641 75.5703 336.15 75.5836C335.995 75.5743 335.84 75.5743 335.685 75.5836L335.393 75.65L335.831 75.4242C336.421 75.1066 336.993 74.7563 337.545 74.3748C338.733 73.5367 339.844 72.5943 340.865 71.5587C343.186 69.1267 345.36 66.5584 347.374 63.8675C348.478 62.6325 350.004 61.8545 351.652 61.6862C353.3 61.518 354.951 61.9715 356.282 62.9579C357.612 63.9443 358.526 65.3923 358.845 67.0179C359.163 68.6435 358.862 70.3294 358.001 71.7446L358.161 71.7314Z" fill="white"/>
<path d="M309.609 62.9905L311.163 65.6472C311.163 65.6472 312.346 69.1275 314.723 69.7651L321.179 67.6796L320.847 67.1349C320.023 65.8863 320.116 63.4554 320.395 61.4363C320.674 59.4172 319.638 59.3508 318.868 59.8555C318.322 60.4836 317.939 61.2363 317.752 62.0473C317.435 61.6087 317.084 61.1956 316.703 60.812L314.737 58.846C314.324 58.4429 313.775 58.2106 313.198 58.1958C312.622 58.181 312.061 58.3848 311.628 58.7663L310.034 60.1876C309.656 60.5374 309.408 61.0053 309.331 61.5146C309.254 62.0239 309.352 62.5443 309.609 62.9905Z" fill="#407BFF"/>
<path opacity="0.7" d="M309.609 62.9905L311.163 65.6472C311.163 65.6472 312.346 69.1275 314.723 69.7651L321.179 67.6796L320.847 67.1349C320.023 65.8863 320.116 63.4554 320.395 61.4363C320.674 59.4172 319.638 59.3508 318.868 59.8555C318.322 60.4836 317.939 61.2363 317.752 62.0473C317.435 61.6087 317.084 61.1956 316.703 60.812L314.737 58.846C314.324 58.4429 313.775 58.2106 313.198 58.1958C312.622 58.181 312.061 58.3848 311.628 58.7663L310.034 60.1876C309.656 60.5374 309.408 61.0053 309.331 61.5146C309.254 62.0239 309.352 62.5443 309.609 62.9905Z" fill="white"/>
<path d="M369.89 53.4264C362.729 55.3244 355.87 58.2174 349.513 62.0208C348.521 62.6415 347.743 63.5506 347.282 64.6261C346.822 65.7016 346.701 66.8922 346.936 68.0383C349.5 80.578 355.331 97.3685 361.628 108.062L390.998 95.9073C391.197 90.7267 384.064 73.9628 376.798 57.7568C375.496 54.8477 372.985 52.6825 369.89 53.4264Z" fill="#407BFF"/>
<path opacity="0.8" d="M369.89 53.4264C362.729 55.3244 355.87 58.2174 349.513 62.0208C348.521 62.6415 347.743 63.5506 347.282 64.6261C346.822 65.7016 346.701 66.8922 346.936 68.0383C349.5 80.578 355.331 97.3685 361.628 108.062L390.998 95.9073C391.197 90.7267 384.064 73.9628 376.798 57.7568C375.496 54.8477 372.985 52.6825 369.89 53.4264Z" fill="white"/>
<path opacity="0.3" d="M381.354 68.0252L375.522 66.0725C376.851 69.4864 381.54 73.8036 384.821 76.3407C383.758 73.684 382.576 70.8945 381.354 68.0252Z" fill="#407BFF"/>
<path d="M367.964 40.2756C365.533 35.6529 360.286 33.3283 353.99 33.8464C348.676 34.298 343.974 39.7177 344.532 42.6401C345.09 45.5625 349.553 46.8112 350.403 47.8207L346.724 50.4774C346.288 50.792 345.92 51.1916 345.643 51.652C345.365 52.1125 345.184 52.6243 345.109 53.1567C345.035 53.6891 345.069 54.231 345.209 54.7499C345.35 55.2688 345.594 55.7539 345.927 56.1761C347.481 58.1421 349.526 60.1612 350.709 61.6489C360.884 61.3833 368.416 57.5044 371.139 53.7718C370.116 49.0428 370.329 44.8717 367.964 40.2756Z" fill="#407BFF"/>
<path opacity="0.8" d="M367.964 40.2756C365.533 35.6529 360.286 33.3283 353.99 33.8464C348.676 34.298 343.974 39.7177 344.532 42.6401C345.09 45.5625 349.553 46.8112 350.403 47.8207L346.724 50.4774C346.288 50.792 345.92 51.1916 345.643 51.652C345.365 52.1125 345.184 52.6243 345.109 53.1567C345.035 53.6891 345.069 54.231 345.209 54.7499C345.35 55.2688 345.594 55.7539 345.927 56.1761C347.481 58.1421 349.526 60.1612 350.709 61.6489C360.884 61.3833 368.416 57.5044 371.139 53.7718C370.116 49.0428 370.329 44.8717 367.964 40.2756Z" fill="white"/>
<path d="M362.969 43.1451C363.692 44.9976 363.849 47.0227 363.42 48.9644C362.992 50.9061 361.997 52.6772 360.563 54.0539C359.128 55.4306 357.317 56.351 355.36 56.6988C353.402 57.0465 351.385 56.8061 349.564 56.0079C347.743 55.2096 346.199 53.8894 345.128 52.214C344.057 50.5387 343.507 48.5834 343.547 46.5955C343.587 44.6075 344.216 42.676 345.353 41.0452C346.491 39.4143 348.086 38.1574 349.938 37.4331C352.424 36.4648 355.192 36.5224 357.635 37.5934C360.079 38.6643 361.997 40.661 362.969 43.1451Z" fill="#263238"/>
<path d="M449.22 162.857C449.074 158.486 448.874 158.872 448.755 155.192C448.675 152.934 448.662 150.423 448.648 148.258C448.644 147.23 448.285 146.235 447.631 145.441C446.978 144.647 446.07 144.103 445.062 143.901C443.309 143.542 441.542 143.21 439.749 142.838C437.45 142.347 435.179 141.816 432.934 141.165C431.181 140.66 429.454 140.102 427.74 139.478C426.027 138.853 424.1 138.149 422.32 137.326C420.222 136.436 418.149 135.479 416.104 134.483C413.806 133.394 411.534 132.251 409.263 131.096C400.522 116.63 400.336 107.092 390.958 95.9075L370.82 105.02C370.82 105.02 385.618 131.268 395.687 142.4C401.492 148.803 410.591 151.699 418.707 153.797C424.565 155.298 430.503 156.454 436.441 157.557C438.752 157.982 441.263 158.141 443.255 159.523C444.73 160.653 445.74 162.283 446.098 164.105C446.187 164.477 446.266 164.849 446.337 165.221C446.59 166.337 449.313 165.487 449.22 162.857Z" fill="#407BFF"/>
<path opacity="0.8" d="M449.22 162.857C449.074 158.486 448.874 158.872 448.755 155.192C448.675 152.934 448.662 150.423 448.648 148.258C448.644 147.23 448.285 146.235 447.631 145.441C446.978 144.647 446.07 144.103 445.062 143.901C443.309 143.542 441.542 143.21 439.749 142.838C437.45 142.347 435.179 141.816 432.934 141.165C431.181 140.66 429.454 140.102 427.74 139.478C426.027 138.853 424.1 138.149 422.32 137.326C420.222 136.436 418.149 135.479 416.104 134.483C413.806 133.394 411.534 132.251 409.263 131.096C400.522 116.63 400.336 107.092 390.958 95.9075L370.82 105.02C370.82 105.02 385.618 131.268 395.687 142.4C401.492 148.803 410.591 151.699 418.707 153.797C424.565 155.298 430.503 156.454 436.441 157.557C438.752 157.982 441.263 158.141 443.255 159.523C444.73 160.653 445.74 162.283 446.098 164.105C446.187 164.477 446.266 164.849 446.337 165.221C446.59 166.337 449.313 165.487 449.22 162.857Z" fill="white"/>
<path opacity="0.3" d="M439.005 142.666C438.208 142.493 437.411 142.32 436.6 142.121C436.667 146.717 434.515 154.634 433.731 157.039L436.255 157.517C437.909 152.732 438.836 147.726 439.005 142.666Z" fill="#407BFF"/>
<path opacity="0.3" d="M448.702 148.258C448.698 147.232 448.34 146.238 447.689 145.444C447.039 144.651 446.134 144.106 445.128 143.901L443.8 143.649C444.013 145.159 444.786 146.534 445.965 147.501C446.724 148.202 447.632 148.72 448.622 149.015C448.702 148.776 448.702 148.51 448.702 148.258Z" fill="#407BFF"/>
<path d="M361.096 43.2247C361.628 45.2438 359.369 47.3559 357.576 45.6157C355.902 43.8212 354.071 42.1807 352.103 40.7141C350.257 39.5584 352.714 37.5393 355.624 38.323C356.865 38.6349 358.012 39.2441 358.965 40.098C359.919 40.952 360.65 42.0251 361.096 43.2247Z" fill="white"/>
<path d="M361.242 107.411C360.313 107.756 362.013 109.35 362.013 109.35C362.013 109.35 380.61 102.987 391.901 96.4387C391.928 96.0422 391.861 95.6449 391.703 95.2799C391.546 94.9148 391.304 94.5926 390.998 94.3398C381.334 99.2555 371.4 103.62 361.242 107.411Z" fill="#407BFF"/>
<path opacity="0.5" d="M361.242 107.411C360.313 107.756 362.013 109.35 362.013 109.35C362.013 109.35 380.61 102.987 391.901 96.4387C391.928 96.0422 391.861 95.6449 391.703 95.2799C391.546 94.9148 391.304 94.5926 390.998 94.3398C381.334 99.2555 371.4 103.62 361.242 107.411Z" fill="white"/>
<path d="M374.925 52.5501C378.591 54.4098 382.031 56.3624 385.551 58.5277C387.265 59.6169 388.965 60.7195 390.652 61.915C392.339 63.1105 394.013 64.3326 395.7 65.7141L396.324 66.2322L397.108 66.9495C397.575 67.3673 398.019 67.8108 398.437 68.2778C398.862 68.7428 399.22 69.1944 399.566 69.6062C399.911 70.018 400.283 70.5095 400.588 70.9345C401.826 72.6423 402.97 74.416 404.016 76.248C406.074 79.8005 407.851 83.5091 409.329 87.3398C409.602 88.0635 409.616 88.8596 409.369 89.5926C409.122 90.3256 408.628 90.9502 407.972 91.3604C407.316 91.7705 406.538 91.9408 405.771 91.8423C405.004 91.7438 404.294 91.3826 403.763 90.8201L403.697 90.7404C401.04 87.911 398.476 84.9354 395.899 82.1592C393.322 79.3829 390.705 76.5668 388.54 75.3314C385.525 73.4584 382.164 71.5854 378.83 69.7523L368.788 64.1732C367.23 63.3488 366.064 61.9396 365.546 60.2556C365.028 58.5715 365.2 56.7507 366.025 55.1935C366.849 53.6363 368.258 52.4704 369.942 51.9522C371.626 51.4341 373.447 51.6061 375.004 52.4305L374.925 52.5501Z" fill="#407BFF"/>
<path opacity="0.8" d="M374.925 52.5501C378.591 54.4098 382.031 56.3624 385.551 58.5277C387.265 59.6169 388.965 60.7195 390.652 61.915C392.339 63.1105 394.013 64.3326 395.7 65.7141L396.324 66.2322L397.108 66.9495C397.575 67.3673 398.019 67.8108 398.437 68.2778C398.862 68.7428 399.22 69.1944 399.566 69.6062C399.911 70.018 400.283 70.5095 400.588 70.9345C401.826 72.6423 402.97 74.416 404.016 76.248C406.074 79.8005 407.851 83.5091 409.329 87.3398C409.602 88.0635 409.616 88.8596 409.369 89.5926C409.122 90.3256 408.628 90.9502 407.972 91.3604C407.316 91.7705 406.538 91.9408 405.771 91.8423C405.004 91.7438 404.294 91.3826 403.763 90.8201L403.697 90.7404C401.04 87.911 398.476 84.9354 395.899 82.1592C393.322 79.3829 390.705 76.5668 388.54 75.3314C385.525 73.4584 382.164 71.5854 378.83 69.7523L368.788 64.1732C367.23 63.3488 366.064 61.9396 365.546 60.2556C365.028 58.5715 365.2 56.7507 366.025 55.1935C366.849 53.6363 368.258 52.4704 369.942 51.9522C371.626 51.4341 373.447 51.6061 375.004 52.4305L374.925 52.5501Z" fill="white"/>
<path d="M412.477 93.968L411.348 91.1386C411.348 91.1386 410.724 87.5254 408.479 86.5159L401.837 87.5653L402.063 88.1498C402.674 89.4781 402.209 91.909 401.611 93.8484C401.014 95.7878 402.023 96.0402 402.873 95.655C403.351 95.4424 403.816 94.579 404.321 93.6624C404.569 94.1242 404.848 94.5681 405.158 94.9908L406.792 97.2357C407.133 97.7009 407.638 98.0198 408.205 98.1282C408.771 98.2366 409.358 98.1266 409.847 97.8202L411.654 96.6645C412.076 96.3752 412.388 95.9506 412.538 95.4606C412.688 94.9705 412.666 94.4442 412.477 93.968Z" fill="#407BFF"/>
<path opacity="0.8" d="M412.477 93.968L411.348 91.1386C411.348 91.1386 410.724 87.5254 408.479 86.5159L401.837 87.5653L402.063 88.1498C402.674 89.4781 402.209 91.909 401.611 93.8484C401.014 95.7878 402.023 96.0402 402.873 95.655C403.351 95.4424 403.816 94.579 404.321 93.6624C404.569 94.1242 404.848 94.5681 405.158 94.9908L406.792 97.2357C407.133 97.7009 407.638 98.0198 408.205 98.1282C408.771 98.2366 409.358 98.1266 409.847 97.8202L411.654 96.6645C412.076 96.3752 412.388 95.9506 412.538 95.4606C412.688 94.9705 412.666 94.4442 412.477 93.968Z" fill="white"/>
<path opacity="0.3" d="M369.319 67.8259L367.698 67.9588L357.749 91.9755C358.293 92.0146 358.839 91.9698 359.37 91.8427C359.37 91.8427 372.334 87.0074 376.253 85.2009C373.623 79.7679 369.319 67.8259 369.319 67.8259Z" fill="#407BFF"/>
<path d="M351.16 74.1221C352.369 80.4002 354.614 86.4335 357.802 91.9752C362.664 90.3015 370.767 87.14 374.699 85.3334C372.056 79.6679 369.71 73.8684 367.672 67.9585C363.514 68.2375 354.388 71.731 351.16 74.1221Z" fill="white"/>
<path opacity="0.3" d="M361.03 79.3163C360.836 79.9659 360.453 80.5433 359.931 80.9754C359.408 81.4076 358.769 81.675 358.095 81.744C357.421 81.813 356.741 81.6804 356.142 81.3629C355.543 81.0454 355.051 80.5574 354.729 79.9606C354.408 79.3637 354.27 78.6849 354.335 78.0099C354.399 77.335 354.662 76.6943 355.09 76.1688C355.519 75.6434 356.093 75.2568 356.742 75.058C357.39 74.8593 358.083 74.8573 358.732 75.0522C359.602 75.3134 360.332 75.9092 360.763 76.7087C361.194 77.5082 361.29 78.4461 361.03 79.3163Z" fill="#407BFF"/>
<path opacity="0.6" d="M363.567 74.7464C363.515 74.9682 363.398 75.1691 363.23 75.3228C363.062 75.4765 362.851 75.5758 362.626 75.6077C362.4 75.6396 362.17 75.6026 361.966 75.5015C361.762 75.4004 361.594 75.24 361.482 75.0414C361.371 74.8427 361.323 74.6151 361.343 74.3883C361.363 74.1615 361.452 73.9462 361.597 73.7707C361.742 73.5951 361.937 73.4675 362.156 73.4046C362.374 73.3416 362.607 73.3463 362.823 73.4181C363.092 73.5041 363.319 73.6891 363.457 73.9357C363.595 74.1822 363.634 74.472 363.567 74.7464Z" fill="#407BFF"/>
<path opacity="0.6" d="M366.543 73.5912C366.511 73.7452 366.448 73.8911 366.358 74.0195C366.267 74.1478 366.15 74.2557 366.015 74.3364C365.88 74.4171 365.73 74.4687 365.574 74.4879C365.418 74.5071 365.26 74.4935 365.109 74.448C364.959 74.4025 364.819 74.326 364.7 74.2235C364.581 74.1211 364.484 73.9948 364.417 73.8529C364.349 73.711 364.312 73.5565 364.307 73.3993C364.303 73.2422 364.331 73.0858 364.391 72.9403C364.433 72.7997 364.503 72.6689 364.596 72.5554C364.689 72.4419 364.804 72.3478 364.934 72.2787C365.063 72.2096 365.205 72.1668 365.351 72.1526C365.497 72.1385 365.645 72.1534 365.785 72.1964C366.07 72.2825 366.309 72.4772 366.45 72.7383C366.592 72.9994 366.625 73.3058 366.543 73.5912Z" fill="#407BFF"/>
<path opacity="0.5" d="M370.714 83.9389L358.426 88.7874L357.696 86.3697L369.97 81.5212L370.714 83.9389Z" fill="#407BFF"/>
<path opacity="0.2" d="M302.928 268.554C302.899 276.289 302.152 284.005 300.696 291.601C299.128 298.429 296.693 303.424 293.39 306.585C291.851 308.112 290.024 309.318 288.015 310.133C286.006 310.947 283.855 311.353 281.687 311.327C274.859 311.327 269.648 307.604 266.052 300.156C265.42 298.818 264.883 297.438 264.445 296.025C256.852 302.546 249.781 309.653 243.297 317.278L236.244 325.594C240.04 329.441 244.42 332.665 249.222 335.145C257.493 339.422 268.35 341.565 281.793 341.574C284.158 341.574 286.443 341.508 288.661 341.375C296.794 329.341 303.524 316.416 308.719 302.852L328.445 251.418L302.928 268.554Z" fill="black"/>
<path d="M125.1 338.731L148.346 361.977L213.436 300.647C191 292.079 147.377 316.401 125.1 338.731Z" fill="#263238"/>
<path d="M206.17 419.761C198.744 412.323 182.924 396.515 182.924 396.515L244.254 331.426C252.769 353.808 228.446 397.472 206.17 419.761Z" fill="#263238"/>
<path d="M295.143 273.243L320.502 224.346L271.605 249.731C255.899 257.877 241.397 268.159 228.513 280.284L145.158 358.75L186.112 399.703L264.578 316.349C276.709 303.461 286.995 288.955 295.143 273.243Z" fill="#407BFF"/>
<path opacity="0.6" d="M295.143 273.243L320.502 224.346L271.605 249.731C255.899 257.877 241.397 268.159 228.513 280.284L145.158 358.75L186.112 399.703L264.578 316.349C276.709 303.461 286.995 288.955 295.143 273.243Z" fill="white"/>
<path d="M243.072 318.912C252.536 318.912 260.208 311.24 260.208 301.776C260.208 292.312 252.536 284.64 243.072 284.64C233.608 284.64 225.936 292.312 225.936 301.776C225.936 311.24 233.608 318.912 243.072 318.912Z" fill="white"/>
<path d="M243.072 312.788C249.153 312.788 254.084 307.858 254.084 301.776C254.084 295.694 249.153 290.764 243.072 290.764C236.99 290.764 232.06 295.694 232.06 301.776C232.06 307.858 236.99 312.788 243.072 312.788Z" fill="#407BFF"/>
<path opacity="0.3" d="M199.966 384.985L159.863 344.882L192.7 313.984L230.864 352.161L199.966 384.985Z" fill="#407BFF"/>
<path d="M134.173 375.42C104.152 377.851 94.2025 397.073 90.8019 422.617C89.075 435.648 88.3046 448.839 77.3722 456.464C76.7145 456.911 76.2193 457.559 75.9608 458.311C75.7023 459.063 75.6943 459.878 75.9382 460.635C76.182 461.392 76.6644 462.049 77.3133 462.509C77.9621 462.969 78.7425 463.206 79.5374 463.185C119.84 461.923 138.636 442.197 141.001 433.961C140.38 438.267 139.27 442.487 137.693 446.541C137.403 447.256 137.346 448.045 137.531 448.794C137.715 449.544 138.132 450.216 138.72 450.715C139.309 451.214 140.04 451.514 140.81 451.573C141.58 451.632 142.348 451.447 143.006 451.044C154.311 443.964 168.498 430.919 169.441 409.758C161.125 397.976 134.173 375.42 134.173 375.42Z" fill="#407BFF"/>
<path opacity="0.2" d="M134.173 375.42C104.152 377.851 94.2025 397.073 90.8019 422.617C89.075 435.648 88.3046 448.839 77.3722 456.464C76.7145 456.911 76.2193 457.559 75.9608 458.311C75.7023 459.063 75.6943 459.878 75.9382 460.635C76.182 461.392 76.6644 462.049 77.3133 462.509C77.9621 462.969 78.7425 463.206 79.5374 463.185C119.84 461.923 138.636 442.197 141.001 433.961C140.38 438.267 139.27 442.487 137.693 446.541C137.403 447.256 137.346 448.045 137.531 448.794C137.715 449.544 138.132 450.216 138.72 450.715C139.309 451.214 140.04 451.514 140.81 451.573C141.58 451.632 142.348 451.447 143.006 451.044C154.311 443.964 168.498 430.919 169.441 409.758C161.125 397.976 134.173 375.42 134.173 375.42Z" fill="white"/>
<path d="M174.103 418.831L126.017 370.745L151.627 365.206L179.642 393.221L174.103 418.831Z" fill="#407BFF"/>
</svg>
